<svg width="173" height="173" viewBox="0 0 173 173" fill="none" xmlns="http://www.w3.org/2000/svg">
<path d="M35.0292 106.17C46.1301 106.17 55.1292 97.1709 55.1292 86.07C55.1292 74.9691 46.1301 65.97 35.0292 65.97C23.9283 65.97 14.9292 74.9691 14.9292 86.07C14.9292 97.1709 23.9283 106.17 35.0292 106.17Z" fill="#3753FF"/>
<path d="M121.429 77.1699C132.129 66.4699 132.129 49.1699 121.429 38.4699L89.5292 6.66987C81.6292 -1.23013 68.8292 -1.23013 61.0292 6.66987C53.2292 14.5699 53.1292 27.3699 61.0292 35.1699L112.229 86.3699L121.429 77.1699Z" fill="#BCC6FF"/>
<path d="M121.429 77.17L112.229 86.37L73.8294 124.77L60.9294 137.67C53.0294 145.57 53.0294 158.37 60.9294 166.17C68.8294 174.07 81.6294 174.07 89.4294 166.17L149.729 105.87C160.529 95.07 160.529 77.57 149.729 66.77L121.429 38.47C132.129 49.17 132.129 66.47 121.429 77.17Z" fill="#3753FF"/>
</svg>
