<svg width="173" height="172" viewBox="0 0 173 172" fill="none" xmlns="http://www.w3.org/2000/svg">
<path d="M35.0448 105.664C46.1457 105.664 55.1448 96.6653 55.1448 85.5644C55.1448 74.4634 46.1457 65.4644 35.0448 65.4644C23.9439 65.4644 14.9448 74.4634 14.9448 85.5644C14.9448 96.6653 23.9439 105.664 35.0448 105.664Z" fill="white"/>
<path d="M121.445 76.6643C132.145 65.9643 132.145 48.6643 121.445 37.9643L89.5448 6.16426C81.6448 -1.73574 68.8448 -1.73574 61.0448 6.16426C53.2448 14.0643 53.1448 26.8643 61.0448 34.6643L112.245 85.8643L121.445 76.6643Z" fill="#B6B5C2"/>
<path d="M121.445 76.6644L112.245 85.8644L73.845 124.264L60.945 137.164C53.045 145.064 53.045 157.864 60.945 165.664C68.845 173.564 81.645 173.564 89.445 165.664L149.745 105.364C160.545 94.5643 160.545 77.0644 149.745 66.2644L121.445 37.9644C132.145 48.6644 132.145 65.9644 121.445 76.6644Z" fill="white"/>
</svg>
