<svg width="73" height="73" viewBox="0 0 73 73" fill="none" xmlns="http://www.w3.org/2000/svg">
<g clip-path="url(#clip0_475_2385)">
<rect x="0.672852" y="0.431885" width="72" height="72" rx="8" fill="white"/>
<path d="M48.9455 34.3223C48.8176 32.4046 48.3062 30.4869 47.2834 28.8248L38.5897 13.6107C37.9504 12.4601 37.439 11.1816 37.1833 9.90308L36.7998 10.5423C34.6263 14.25 34.6263 18.9804 36.7998 22.688L43.8315 34.8337C46.0049 38.5414 46.0049 43.2718 43.8315 46.9795L43.4479 47.6187C43.1922 46.3402 42.6808 45.0617 42.0416 43.9111L35.6491 32.7882L31.5579 25.6286C30.9187 24.4779 30.4073 23.1994 30.1516 21.9209L29.768 22.5602C27.5946 26.2678 27.5946 30.8704 29.768 34.7059L36.7998 46.8516C38.9732 50.5592 38.9732 55.2897 36.7998 58.9973L36.4162 59.6366C36.1605 58.3581 35.6491 57.0796 35.0099 55.9289L26.1882 40.7148C25.0376 38.6692 24.5262 36.3679 24.5262 34.0666C15.1932 36.4958 8.67285 41.7376 8.67285 47.7466C8.67285 56.1846 21.2021 62.9607 36.6719 62.9607C52.1417 62.9607 64.671 56.1846 64.671 47.7466C64.7988 41.9933 58.4063 36.7515 48.9455 34.3223Z" fill="#EA1D25"/>
</g>
<defs>
<clipPath id="clip0_475_2385">
<rect x="0.672852" y="0.431885" width="72" height="72" rx="8" fill="white"/>
</clipPath>
</defs>
</svg>
