<svg width="73" height="73" viewBox="0 0 73 73" fill="none" xmlns="http://www.w3.org/2000/svg">
<g clip-path="url(#clip0_475_2341)">
<path fill-rule="evenodd" clip-rule="evenodd" d="M12.7563 -0.102783H60.656L61.2774 -0.0901031L61.8819 -0.0393753L62.4843 0.036705L63.074 0.140282L63.6531 0.275543L64.2237 0.43618L64.7796 0.62429L65.3228 0.839874L65.8533 1.07871L66.369 1.34291L66.872 1.63459L67.3582 1.94528L67.8253 2.27711L68.2776 2.63643L68.7151 3.01476L69.1272 3.41L69.5267 3.82638L69.9008 4.25755L70.2601 4.71198L70.5919 5.1833L70.9005 5.66943L71.188 6.17246L71.4543 6.68817L71.6973 7.21869L71.9066 7.76188L72.0968 8.31775L72.2574 8.88842L72.3927 9.46755L72.4962 10.0572L72.5723 10.6533L72.6209 11.2641L72.6357 11.8813V59.79L72.6209 60.4053L72.5723 61.0116L72.4962 61.6136L72.3927 62.2018L72.2574 62.7814L72.0968 63.3516L71.9066 63.9041L71.6973 64.4475L71.4543 64.982L71.188 65.4941L70.9005 65.9972L70.5919 66.4822L70.2601 66.9538L69.9008 67.4029L69.5267 67.8385L69.1272 68.2562L68.7151 68.6514L68.2776 69.0287L67.8253 69.3836L67.3582 69.716L66.872 70.0258L66.369 70.3133L65.8533 70.5783L65.3228 70.8208L64.7796 71.0319L64.2237 71.2206L63.6531 71.3822L63.074 71.517L62.4843 71.6203L61.8819 71.6966L61.2774 71.746L60.656 71.7595H12.7563L12.1364 71.746L11.5302 71.6966L10.9283 71.6203L10.3399 71.517L9.7561 71.3822L9.19008 71.2206L8.63316 71.0319L8.08976 70.8208L7.55524 70.5783L7.0389 70.3133L6.54031 70.0258L6.0508 69.716L5.58371 69.3836L5.12992 69.0287L4.69432 68.6514L4.28112 68.2562L3.88144 67.8385L3.50861 67.4029L3.15374 66.9538L2.81705 66.4822L2.50709 65.9972L2.21965 65.4941L1.95465 64.982L1.71212 64.4475L1.50104 63.9041L1.3124 63.3516L1.15071 62.7814L1.01597 62.2018L0.912669 61.6136L0.836316 61.0116L0.786911 60.4053L0.773438 59.79V11.8813L0.786911 11.2641L0.836316 10.6533L0.912669 10.0572L1.01597 9.46755L1.15071 8.88842L1.3124 8.31775L1.50104 7.76188L1.71212 7.21869L1.95465 6.68817L2.21965 6.17246L2.50709 5.66943L2.81705 5.1833L3.15374 4.71198L3.50861 4.25755L3.88144 3.82638L4.28112 3.41L4.69432 3.01476L5.12992 2.63643L5.58371 2.27711L6.0508 1.94528L6.54031 1.63459L7.0389 1.34291L7.55524 1.07871L8.08976 0.839874L8.63316 0.62429L9.19008 0.43618L9.7561 0.275543L10.3399 0.140282L10.9283 0.036705L11.5302 -0.0393753L12.1364 -0.0901031L12.7563 -0.102783Z" fill="#184D86"/>
<path fill-rule="evenodd" clip-rule="evenodd" d="M6.76465 59.7825H12.3519V35.825H6.76465V59.7825Z" fill="#FFF212"/>
<path fill-rule="evenodd" clip-rule="evenodd" d="M37.385 41.304H37.0659L36.7509 41.3145L36.4402 41.3272L36.1401 41.3462L35.8442 41.3632L35.5525 41.3906L35.2651 41.4223L34.9819 41.454L34.7071 41.4942L34.4387 41.5344L34.1724 41.5787L33.9124 41.6274L33.6609 41.6781L33.4136 41.7309L33.1705 41.7901L32.9338 41.8493L32.7035 41.9106L32.4794 41.974L32.2638 42.0416L32.0525 42.1093L31.8453 42.1769L31.6488 42.2487L31.4564 42.3206L31.2705 42.3967L31.0908 42.4686L30.9175 42.5446L30.7505 42.6207L30.5878 42.6968L30.4356 42.7729L30.2876 42.849L30.1481 42.9272L30.0129 43.0033L31.0654 46.533L31.1859 46.4611L31.3127 46.3893L31.4417 46.3174L31.5769 46.2498L31.7164 46.1821L31.8601 46.1145L32.0081 46.0469L32.1603 45.9856L32.3188 45.9222L32.4794 45.8588L32.6422 45.7953L32.807 45.7383L32.974 45.6833L33.1452 45.6263L33.3185 45.5713L33.4939 45.5227L33.6736 45.472L33.8532 45.4276L34.0371 45.3832L34.2168 45.343L34.4028 45.3029L34.5909 45.267L34.7747 45.2352L34.9629 45.2035L35.1467 45.1761L35.337 45.1549L35.5251 45.1317L35.7089 45.119L35.897 45.1042L36.0809 45.0915L36.2712 45.0873H36.455L36.7509 45.0915L37.0384 45.1042L37.3068 45.1275L37.5583 45.1549L37.8014 45.1951L38.0318 45.2395L38.2473 45.2923L38.4481 45.3515L38.6426 45.4191L38.8222 45.491L38.9871 45.5671L39.1393 45.6474L39.283 45.7341L39.4183 45.8228L39.5451 45.9179L39.6571 46.0109L39.7606 46.1103L39.8579 46.2138L39.9445 46.3132L40.0206 46.4167L40.0883 46.5245L40.1517 46.6281L40.2045 46.7296L40.2531 46.8331L40.2954 46.9367L40.325 47.036L40.3524 47.1354L40.3757 47.2284L40.3926 47.3235L40.4032 47.4122L40.4116 47.4989V47.5792V47.7716L39.7416 47.7779L39.0864 47.7948L38.4481 47.8265L37.8288 47.8709L37.2265 47.9301L36.6431 48.0062L36.0725 48.0907L35.5251 48.1943L34.9946 48.3063L34.4873 48.4373L33.9927 48.5811L33.5214 48.7375L33.0733 48.9087L32.6422 49.0925L32.2279 49.2912L31.8369 49.5026L31.4691 49.7266L31.1225 49.9633L30.7949 50.2149L30.4948 50.4854L30.2116 50.7638L29.9558 51.0556L29.7212 51.3655L29.5056 51.6844L29.3217 52.0167L29.1569 52.3671L29.0174 52.7264L28.9054 53.1037L28.8145 53.4899L28.7469 53.8898L28.7109 54.3074L28.6982 54.7341L28.7025 54.9901L28.7194 55.246L28.7511 55.502L28.7976 55.7535L28.8546 56.005L28.9223 56.2566L29.0026 56.5036L29.0977 56.7463L29.2013 56.9843L29.3217 57.2178L29.4528 57.4469L29.5923 57.6714L29.7445 57.8914L29.9114 58.1026L30.0911 58.3093L30.2792 58.5069L30.48 58.6954L30.6913 58.8751L30.9175 59.0459L31.15 59.2075L31.3973 59.3601L31.6572 59.5039L31.9278 59.6341L32.211 59.7509L32.5027 59.8587L32.8028 59.953L33.1219 60.034L33.4453 60.1012L33.7814 60.1551L34.128 60.1956L34.4873 60.2181L34.8551 60.2269L35.0791 60.2225L35.301 60.2136L35.5166 60.2045L35.7322 60.1866L35.9414 60.1642L36.1528 60.1371L36.3599 60.1058L36.567 60.0699L36.7678 60.0249L36.9665 59.9801L37.1631 59.9306L37.3575 59.8767L37.5456 59.8184L37.7337 59.7554L37.9176 59.6835L38.0973 59.6117L38.2727 59.5354L38.4481 59.4544L38.6193 59.3737L38.7863 59.2838L38.9469 59.1896L39.1033 59.0951L39.2618 58.992L39.4098 58.8886L39.5577 58.7808L39.7015 58.6686L39.841 58.5517L39.972 58.4304L40.1009 58.3093L40.2277 58.1835L40.3482 58.0531L40.4645 57.9185H40.5279L41.1387 59.7824H45.685V49.1644L45.6786 48.7607L45.6575 48.3655L45.6258 47.9745L45.5814 47.5877L45.5222 47.2072L45.4461 46.8331L45.3616 46.4696L45.258 46.1145L45.1355 45.7658L45.0065 45.4276L44.8522 45.1L44.6874 44.7808L44.5035 44.4722L44.3048 44.1742L44.085 43.8868L43.8525 43.6141L43.601 43.352L43.3262 43.1069L43.0346 42.8723L42.7239 42.6524L42.3963 42.4453L42.0454 42.2572L41.6777 42.0818L41.2866 41.9254L40.8787 41.7816L40.4433 41.6591L39.9889 41.5513L39.5134 41.4625L39.0146 41.3949L38.4925 41.3462L37.9493 41.3145L37.385 41.304ZM40.5723 53.1576V53.2654L40.568 53.3776L40.5596 53.4899L40.5511 53.6067L40.5363 53.719L40.5236 53.8359L40.5046 53.9481L40.4793 54.0603L40.4687 54.1007L40.4518 54.1592L40.4391 54.2131L40.4243 54.2491L40.4074 54.2939L40.3884 54.3389L40.3398 54.4511L40.2848 54.5589L40.2277 54.6667L40.1643 54.7745L40.0967 54.8779L40.0248 54.9857L39.9488 55.0888L39.8684 55.1877L39.7818 55.2864L39.6972 55.3853L39.6021 55.4796L39.5049 55.5739L39.4056 55.6637L39.302 55.7491L39.19 55.8345L39.078 55.9152L38.9596 55.9917L38.8434 56.068L38.7187 56.1354L38.5918 56.2027L38.4629 56.2656L38.3277 56.3195L38.1924 56.3734L38.0487 56.4229L37.9049 56.4633L37.7612 56.5036L37.609 56.5351L37.4569 56.562L37.3026 56.5846L37.1419 56.5979L36.9792 56.6114H36.8186H36.6748L36.5353 56.6025L36.4001 56.5935L36.2648 56.5755L36.1359 56.5531L36.0091 56.5307L35.8844 56.4992L35.7618 56.4633L35.6498 56.4273L35.5335 56.3823L35.4257 56.3331L35.3222 56.2792L35.2186 56.2253L35.1256 56.1623L35.0305 56.0949L34.9459 56.0277L34.8593 55.9511L34.7832 55.8704L34.7071 55.7895L34.6395 55.6996L34.5761 55.6054L34.5148 55.5111L34.4598 55.4077L34.4112 55.3044L34.3711 55.1966L34.3309 55.0799L34.2992 54.963L34.2717 54.8419L34.2485 54.7115L34.2358 54.5813L34.2273 54.4467L34.2231 54.3074L34.2273 54.1502L34.24 54.002L34.2633 53.8538L34.2886 53.7101L34.3246 53.5753L34.3711 53.4406L34.4239 53.3149L34.4831 53.1891L34.5507 53.0678L34.6226 52.9556L34.7029 52.8431L34.7917 52.7353L34.8868 52.6322L34.9903 52.5377L35.0981 52.4434L35.2144 52.3536L35.337 52.2638L35.4617 52.183L35.5969 52.1065L35.7364 52.0302L35.8801 51.9584L36.0323 51.8909L36.1845 51.8282L36.3472 51.7698L36.5163 51.7113L36.6875 51.662L36.863 51.6126L37.0468 51.5631L37.2307 51.5227L37.4252 51.4824L37.6175 51.4464L37.8204 51.415L38.0085 51.3879L38.2051 51.3611L38.4037 51.3387L38.6109 51.316L38.8159 51.3027L39.0315 51.2848L39.2471 51.2757L39.469 51.2668L39.6021 51.2621L39.7374 51.2577L39.8769 51.2533H40.0122H40.1517H40.289H40.4285H40.5723V53.1576Z" fill="#FFF212"/>
<path fill-rule="evenodd" clip-rule="evenodd" d="M61.1151 41.8274V52.3508V52.508L61.1066 52.6606L61.0919 52.809L61.0707 52.9527L61.0475 53.0964L61.0158 53.2311L60.9756 53.3659L60.927 53.4917L60.8868 53.5948L60.8361 53.6982L60.7833 53.8015L60.7283 53.9049L60.6713 54.0036L60.6078 54.107L60.5402 54.2103L60.4683 54.309L60.3923 54.4079L60.3162 54.5066L60.2295 54.6055L60.145 54.6998L60.0562 54.7896L59.9611 54.8795L59.8618 54.9649L59.7582 55.05L59.6504 55.131L59.5426 55.2117L59.4264 55.2836L59.3101 55.3555L59.1833 55.4184L59.0586 55.4812L58.9276 55.5398L58.7923 55.589L58.6549 55.6385L58.5112 55.6788L58.3611 55.7148L58.2089 55.7418L58.0568 55.7687L57.894 55.7822L57.7334 55.7957H57.5622L57.3551 55.7913L57.1543 55.7777L56.9556 55.7553L56.7675 55.7194L56.5878 55.6788L56.4124 55.6249L56.2476 55.5622L56.089 55.4903L55.9369 55.414L55.7931 55.3242L55.6536 55.2253L55.5226 55.1175L55.4021 55.0052L55.2817 54.8795L55.1739 54.7493L55.0703 54.61L54.971 54.4618L54.8822 54.3046L54.7998 54.1384L54.7195 53.9677L54.6518 53.788L54.5842 53.5995L54.5271 53.4019L54.4764 53.1996L54.432 52.9887L54.3918 52.7731L54.3601 52.5484L54.3327 52.3148L54.3115 52.0769L54.2967 51.8298L54.2883 51.5783L54.2841 51.3179V41.819H48.8311V52.3148V52.5799L48.8395 52.8358L48.8501 53.0829L48.8628 53.33L48.8818 53.5724L48.9029 53.8104L48.9304 54.0395L48.9579 54.2686L48.9938 54.4887L49.0297 54.7043L49.0699 54.9154L49.1185 55.1219L49.1692 55.3242L49.2221 55.5218L49.277 55.7148L49.3383 55.8991L49.4017 56.0832L49.4736 56.2628L49.5412 56.438L49.6173 56.6086L49.6934 56.7747L49.7695 56.9364L49.8561 57.0937L49.9407 57.2509L50.0252 57.3991L50.1161 57.5472L50.2112 57.691L50.3084 57.8258L50.4078 57.9604L50.5113 58.0909L50.6149 58.2166L50.7227 58.3377L50.8347 58.459L50.951 58.5713L51.0672 58.6837L51.1856 58.7869L51.3103 58.8902L51.4329 58.9891L51.5618 59.0834L51.6928 59.1732L51.8281 59.2586L51.9612 59.3394L52.1007 59.4157L52.2402 59.4922L52.384 59.5594L52.5319 59.6268L52.6799 59.6851L52.8341 59.7437L52.9906 59.7976L53.1427 59.8468L53.3055 59.8963L53.4619 59.9367L53.6288 59.9772L53.7895 60.0132L53.9565 60.0491L54.1277 60.0759L54.2967 60.103L54.4679 60.1254L54.6434 60.1434L54.8188 60.1613L54.9984 60.1749L55.1781 60.1793L55.362 60.1882H55.5459H55.7086L55.865 60.1837L56.0172 60.1793L56.1694 60.1702L56.3236 60.1569L56.4716 60.1434L56.6195 60.1298L56.7633 60.1074L56.9028 60.0895L57.0423 60.0624L57.1818 60.04L57.3149 60.0085L57.446 59.9817L57.577 59.9457L57.7059 59.9098L57.8327 59.8739L58.0737 59.7929L58.3125 59.7078L58.5366 59.6179L58.7564 59.5281L58.9677 59.4292L59.1706 59.3305L59.363 59.2227L59.5468 59.1149L59.7223 59.0024L59.8935 58.8902L60.0562 58.7735L60.2126 58.6567L60.3606 58.5353L60.5001 58.4096L60.6311 58.2838L60.7558 58.1536L60.8763 58.0279L60.9904 57.9021L61.0919 57.7808L61.1912 57.6641L61.2863 57.5519L61.3708 57.4395L61.4469 57.3363L61.5188 57.2285L62.2205 59.7796H66.6484V41.8274H61.1151Z" fill="#FFF212"/>
<path fill-rule="evenodd" clip-rule="evenodd" d="M17.5867 35.8255V41.8218H15.04V45.9137H17.5867V53.2159L17.5911 53.4406L17.5956 53.6606L17.6002 53.8807L17.6091 54.0918L17.6226 54.303L17.6406 54.5095L17.6585 54.7115L17.6809 54.9138L17.7033 55.1068L17.7304 55.2999L17.7619 55.4887L17.7978 55.6728L17.8338 55.8524L17.8741 56.0321L17.9145 56.2027L17.9595 56.3734L18.0088 56.5396L18.0627 56.7013L18.1165 56.8585L18.1751 57.0111L18.2379 57.1639L18.3008 57.3076L18.3681 57.4514L18.4399 57.586L18.5118 57.7208L18.5883 57.851L18.669 57.9768L18.7544 58.1026L18.8398 58.2194L18.9296 58.3317L19.0239 58.4439L19.1182 58.5473L19.208 58.6371L19.2978 58.7269L19.3921 58.8123L19.4866 58.8975L19.5897 58.9784L19.6931 59.0592L19.8053 59.1401L19.9177 59.2164L20.03 59.2927L20.1513 59.3646L20.2724 59.432L20.3981 59.5039L20.5285 59.5669L20.6587 59.6296L20.798 59.6926L20.9327 59.7465L21.0764 59.8048L21.2201 59.8543L21.3683 59.9035L21.5166 59.9486L21.6692 59.9934L21.8265 60.0293L21.9835 60.0652L22.1463 60.0967L22.3069 60.1282L22.4739 60.1551L22.6387 60.173L22.8099 60.191L22.9811 60.209L23.1566 60.2181L23.332 60.2225L23.5116 60.2269L23.8075 60.2225L24.0802 60.2136L24.338 60.2001L24.5705 60.1821L24.7903 60.1597L24.9932 60.1327L25.1856 60.1012L25.361 60.0652L25.5322 60.0293L25.6886 59.9889L25.8366 59.9441L25.9845 59.8991L26.2635 59.8004L26.5383 59.6971V55.5246L26.4664 55.5515L26.3713 55.5785L26.2593 55.6054L26.1198 55.6278L25.9634 55.6504L25.7879 55.6637L25.5998 55.6772L25.3969 55.6817L25.2173 55.6772L25.0503 55.6683L24.8897 55.6504L24.7375 55.6233L24.5938 55.5918L24.4585 55.5559L24.3275 55.5111L24.207 55.4572L24.095 55.3989L23.9872 55.3359L23.8836 55.2596L23.7927 55.1833L23.704 55.0979L23.6237 55.0081L23.5476 54.9091L23.4799 54.8013L23.4165 54.6936L23.3573 54.5724L23.3045 54.4511L23.2538 54.3209L23.2136 54.1816L23.1735 54.0424L23.1418 53.8898L23.1101 53.7369L23.0889 53.5753L23.0657 53.4047L23.0488 53.2339L23.034 53.0543L23.0255 52.8657L23.0171 52.677L23.0128 52.4794V52.2773V45.9137H26.4791V41.8218H23.0128V35.8255H17.5867Z" fill="#FFF212"/>
<path fill-rule="evenodd" clip-rule="evenodd" d="M59.0565 35.8204L55.6875 40.6626H59.5849L64.3341 35.8204H59.0565Z" fill="#FFF212"/>
</g>
<defs>
<clipPath id="clip0_475_2341">
<rect x="0.635742" y="0.0476074" width="72" height="72" rx="8" fill="white"/>
</clipPath>
</defs>
</svg>
