<svg width="73" height="73" viewBox="0 0 73 73" fill="none" xmlns="http://www.w3.org/2000/svg">
<rect x="0.900391" y="0.0476074" width="72" height="72" rx="8" fill="white"/>
<path fill-rule="evenodd" clip-rule="evenodd" d="M47.3549 65.8184C37.3298 65.8184 8.30762 57.7054 8.30762 47.6731C8.30762 37.6684 37.3298 29.5418 47.3549 29.5418C57.3736 29.5418 65.4934 37.6684 65.4934 47.6731C65.4934 57.7054 57.3736 65.8184 47.3549 65.8184Z" fill="#1C874E"/>
<path fill-rule="evenodd" clip-rule="evenodd" d="M38.4132 36.3574C31.8899 32.4023 16.2133 15.6407 20.1719 9.12425C24.127 2.60427 46.2309 8.781 52.7508 12.7532C59.2673 16.7018 61.3548 25.2027 57.3891 31.7259C53.4305 38.2459 44.9399 40.3263 38.4132 36.3574Z" fill="#ACCD53"/>
<path fill-rule="evenodd" clip-rule="evenodd" d="M32.9209 31.9985C34.9979 33.9344 36.9396 35.4824 38.4139 36.3762C44.7377 40.2218 52.905 38.3883 57.0075 32.3402C54.2122 30.5795 50.9026 29.5604 47.3548 29.5604C44.041 29.5604 38.6516 30.4483 32.9209 31.9985Z" fill="#014F2A"/>
</svg>
