<svg width="72" height="73" viewBox="0 0 72 73" fill="none" xmlns="http://www.w3.org/2000/svg">
<g clip-path="url(#clip0_475_2088)">
<rect y="0.0476074" width="72" height="72" rx="8" fill="white"/>
<path fill-rule="evenodd" clip-rule="evenodd" d="M46.1941 40.984C46.1941 40.984 53.0364 42.8115 50.8798 52.4254C50.7412 52.9393 50.7412 53.4561 50.7874 54.019C51.0213 56.8772 53.507 58.9415 56.3681 58.7076C59.2263 58.4709 61.2905 55.988 61.0567 53.1269C60.5861 46.4232 47.9754 38.2644 46.2865 38.452C46.2865 38.452 45.302 38.4982 45.2529 39.7628C45.2529 40.7963 46.1941 40.984 46.1941 40.984Z" fill="#188C44"/>
<path fill-rule="evenodd" clip-rule="evenodd" d="M44.0788 44.1711C44.0788 44.1711 48.5336 45.3432 47.1767 51.6284C47.1767 51.6284 45.7216 57.5353 36.252 59.1289C25.5122 60.9103 25.6998 56.9723 25.6998 56.9723C25.6075 55.0033 24.8568 52.659 35.5014 46.1891C35.5014 46.1891 40.8453 42.9065 44.0788 44.1711Z" fill="#F9D339"/>
<path fill-rule="evenodd" clip-rule="evenodd" d="M8.30719 60.2523C8.40246 63.2981 10.6515 65.8301 13.6511 66.3007C14.0755 66.3469 14.497 66.393 14.9186 66.393C16.6075 66.3469 18.2011 65.5962 19.3242 64.3779C20.4992 63.1105 21.0593 61.5168 21.0131 59.8308C21.0131 55.2346 23.0774 51.8105 27.2492 48.6232C31.0023 45.8574 36.3925 42.4824 43.9421 38.2616C53.3655 33.2439 59.4601 27.337 60.8199 22.5531L60.8689 22.4145C61.0566 21.8025 61.1028 21.1933 61.0566 20.5841C60.9613 17.5383 58.7123 15.0063 55.7098 14.5357C55.2883 14.4896 54.8668 14.4434 54.4452 14.4434C52.7563 14.4896 51.1627 15.2402 50.0367 16.4585C48.8646 17.7231 48.3016 19.3196 48.3478 21.0056C48.3478 25.8357 45.4434 29.023 41.5026 32.7762C33.1099 39.3384 25.3755 42.5748 25.3755 42.5748C15.9492 47.5925 9.85465 53.4995 8.49485 58.2833L8.44866 58.4219C8.35338 59.0311 8.261 59.6402 8.30719 60.2523Z" fill="#DB3942"/>
<path fill-rule="evenodd" clip-rule="evenodd" d="M18.2934 15.0539C18.8102 23.5851 30.624 33.482 37.9398 37.4661C39.9088 38.543 42.3484 38.8259 43.379 38.4968C46.7078 36.9955 43.1452 35.6848 43.1452 35.6848C43.1452 35.6848 31.6576 32.5437 35.3617 16.3675C35.5493 15.5216 35.6417 14.6324 35.5955 13.6941C35.2202 8.9593 31.0484 5.39379 26.2646 5.72291C21.5298 6.09823 17.9181 10.27 18.2934 15.0539Z" fill="#3366A1"/>
</g>
<defs>
<clipPath id="clip0_475_2088">
<rect y="0.0476074" width="72" height="72" rx="8" fill="white"/>
</clipPath>
</defs>
</svg>
