<svg width="73" height="73" viewBox="0 0 73 73" fill="none" xmlns="http://www.w3.org/2000/svg">
<g clip-path="url(#clip0_475_2177)">
<rect x="0.327148" y="0.0476074" width="72" height="72" rx="8" fill="#0F2B5F"/>
<path fill-rule="evenodd" clip-rule="evenodd" d="M28.8477 17.7554C26.2055 20.9486 21.5838 22.7617 19.1327 26.388V46.4264C19.1327 49.4244 17.1954 48.7406 17.379 50.5328L28.0744 42.7832V21.9211L41.9325 10.8678L41.2202 10.5196C37.636 12.146 33.9868 8.76154 29.855 9.06727C23.7547 9.30948 18.367 12.1927 14.3271 16.647C18.5124 14.5918 25.1945 14.1544 28.8477 17.7554Z" fill="#F5F5F5"/>
<path fill-rule="evenodd" clip-rule="evenodd" d="M45.4902 31.809V20.913C48.385 23.1805 51.0465 30.2419 45.4902 31.809ZM46.5509 54.7646L45.4902 54.0935V37.2484C46.6658 37.2866 47.3973 38.8409 47.3588 40.3695C47.3588 40.3695 47.447 52.2423 47.447 53.3547C47.447 54.4631 46.5509 54.7646 46.5509 54.7646ZM47.8759 34.0552C50.9738 31.5797 54.8832 29.4735 57.1428 25.8429C59.2029 22.3268 53.4282 15.2397 50.472 10.1571L47.918 9.42651L30.4794 23.2611V46.8366C30.4794 49.6945 29.1047 48.879 29.1774 50.4629L40.2057 42.3017V19.0019L43.1427 16.586V53.0746L37.215 51.3716C28.9859 50.2378 21.4116 54.3525 16.7285 60.7561C24.3064 56.8537 34.2933 57.8219 41.2359 63.0492L56.4803 51.1169C58.9118 48.5693 57.4604 43.9491 57.5407 40.6838C57.089 35.206 51.4637 34.8493 47.8759 34.0552Z" fill="#F5F5F5"/>
</g>
<defs>
<clipPath id="clip0_475_2177">
<rect x="0.327148" y="0.0476074" width="72" height="72" rx="8" fill="white"/>
</clipPath>
</defs>
</svg>
