<svg width="73" height="73" viewBox="0 0 73 73" fill="none" xmlns="http://www.w3.org/2000/svg">
<g clip-path="url(#clip0_475_2391)">
<rect x="0.672852" y="0.431885" width="72" height="72" rx="8" fill="#EC121F"/>
<path d="M49.2158 22.6947H36.6714C29.5171 22.6947 23.6253 28.0998 22.8566 35.0495H22.8539C21.7527 33.0583 21.126 30.7682 21.126 28.3317C21.126 20.6551 27.349 14.4319 35.0256 14.4319H56.6729L49.2158 22.6947Z" fill="#F5F5F5"/>
<path d="M24.1299 50.4935H36.6743C43.8286 50.4935 49.7206 45.0885 50.4893 38.1389H50.4916C51.593 40.1301 52.2197 42.42 52.2197 44.8565C52.2197 52.5332 45.9969 58.7563 38.3201 58.7563H16.6729L24.1299 50.4935Z" fill="#F5F5F5"/>
<path d="M47.8361 36.5964C47.8361 42.7625 42.8374 47.7612 36.6714 47.7612C30.5056 47.7612 25.5068 42.7625 25.5068 36.5964C25.5068 30.4304 30.5056 25.4319 36.6714 25.4319C42.8374 25.4319 47.8361 30.4304 47.8361 36.5964Z" fill="#F5F5F5"/>
</g>
<defs>
<clipPath id="clip0_475_2391">
<rect x="0.672852" y="0.431885" width="72" height="72" rx="8" fill="white"/>
</clipPath>
</defs>
</svg>
